<svg aria-hidden="true" style="position: absolute; width: 0; height: 0; overflow: hidden;" version="1.1" xmlns="http://www.w3.org/2000/svg" xmlns:xlink="http://www.w3.org/1999/xlink">
<defs>
<symbol id="icon-Checkbox" viewBox="0 0 19 32">
<path fill="none" stroke="#2e2f42" style="stroke: var(--color1, #2e2f42)" stroke-linejoin="miter" stroke-linecap="butt" stroke-miterlimit="4" stroke-width="0.3556" d="M7.822 7.289h4.267c0.295 0 0.533 0.239 0.533 0.533v4.267c0 0.295-0.239 0.533-0.533 0.533h-4.267c-0.295 0-0.533-0.239-0.533-0.533v-4.267c0-0.295 0.239-0.533 0.533-0.533z"></path>
<path fill="#404bbf" style="fill: var(--color2, #404bbf)" d="M7.822 19.733h4.267c0.295 0 0.533 0.239 0.533 0.533v4.267c0 0.295-0.239 0.533-0.533 0.533h-4.267c-0.295 0-0.533-0.239-0.533-0.533v-4.267c0-0.295 0.239-0.533 0.533-0.533z"></path>
<path fill="#f4f4fd" style="fill: var(--color3, #f4f4fd)" d="M11.181 21.068c0.061-0.059 0.143-0.091 0.228-0.091s0.166 0.034 0.227 0.094c0.061 0.060 0.096 0.141 0.098 0.226s-0.029 0.168-0.086 0.231l-1.74 2.188c-0.030 0.032-0.066 0.058-0.106 0.076s-0.084 0.028-0.127 0.029c-0.044 0.001-0.088-0.007-0.128-0.024s-0.078-0.041-0.109-0.072l-1.154-1.16c-0.032-0.030-0.058-0.066-0.076-0.107s-0.027-0.084-0.028-0.128c-0.001-0.044 0.007-0.088 0.024-0.129s0.041-0.078 0.072-0.109c0.031-0.031 0.068-0.056 0.109-0.072s0.084-0.025 0.128-0.024c0.044 0.001 0.087 0.010 0.127 0.028s0.076 0.044 0.106 0.076l0.913 0.918 1.515-1.94c0.003-0.003 0.006-0.007 0.009-0.010h-0z"></path>
<path fill="none" stroke="#404bbf" style="stroke: var(--color2, #404bbf)" stroke-linejoin="miter" stroke-linecap="butt" stroke-miterlimit="4" stroke-width="0.3556" d="M7.822 19.733h4.267c0.295 0 0.533 0.239 0.533 0.533v4.267c0 0.295-0.239 0.533-0.533 0.533h-4.267c-0.295 0-0.533-0.239-0.533-0.533v-4.267c0-0.295 0.239-0.533 0.533-0.533z"></path>
<path fill="none" stroke="#9747ff" style="stroke: var(--color4, #9747ff)" stroke-linejoin="miter" stroke-linecap="butt" stroke-miterlimit="4" stroke-width="0.3556" d="M1.778 0.178h15.644c0.884 0 1.6 0.716 1.6 1.6v28.444c0 0.884-0.716 1.6-1.6 1.6h-15.644c-0.884 0-1.6-0.716-1.6-1.6v-28.444c0-0.884 0.716-1.6 1.6-1.6z"></path>
</symbol>
<symbol id="icon-email" viewBox="0 0 24 32">
<path d="M20 8h-16c-1.1 0-1.99 0.9-1.99 2l-0.010 12c0 1.1 0.9 2 2 2h16c1.1 0 2-0.9 2-2v-12c0-1.1-0.9-2-2-2zM19.6 12.25l-7.070 4.42c-0.32 0.2-0.74 0.2-1.060 0l-7.070-4.42c-0.25-0.16-0.4-0.43-0.4-0.72 0-0.67 0.73-1.070 1.3-0.72l6.7 4.19 6.7-4.19c0.57-0.35 1.3 0.050 1.3 0.72 0 0.29-0.15 0.56-0.4 0.72z"></path>
</symbol>
<symbol id="icon-phone" viewBox="0 0 24 32">
<path d="M19.635 18.487l-2.451-0.28c-0.589-0.067-1.167 0.135-1.582 0.55l-1.775 1.775c-2.731-1.389-4.969-3.618-6.359-6.359l1.785-1.785c0.415-0.415 0.618-0.994 0.55-1.582l-0.28-2.432c-0.116-0.975-0.936-1.708-1.92-1.708h-1.669c-1.090 0-1.997 0.907-1.93 1.997 0.511 8.24 7.102 14.821 15.332 15.332 1.090 0.068 1.997-0.839 1.997-1.93v-1.669c0.010-0.975-0.724-1.795-1.698-1.911z"></path>
</symbol>
<symbol id="icon-person" viewBox="0 0 32 32">
<path fill="#4d5ae5" style="fill: var(--color5, #4d5ae5)" d="M16 16c2.947 0 5.333-2.387 5.333-5.333s-2.387-5.333-5.333-5.333c-2.947 0-5.333 2.387-5.333 5.333s2.387 5.333 5.333 5.333zM16 18.667c-3.56 0-10.667 1.787-10.667 5.333v1.333c0 0.733 0.6 1.333 1.333 1.333h18.667c0.733 0 1.333-0.6 1.333-1.333v-1.333c0-3.547-7.107-5.333-10.667-5.333z"></path>
</symbol>
<symbol id="icon-close" viewBox="0 0 32 32">
<path d="M32 3.223l-3.223-3.223-12.777 12.777-12.777-12.777-3.223 3.223 12.777 12.777-12.777 12.777 3.223 3.223 12.777-12.777 12.777 12.777 3.223-3.223-12.777-12.777 12.777-12.777z"></path>
</symbol>
</defs>
</svg>
